<svg width="1165" height="1061" viewBox="0 0 1165 1061" fill="none" xmlns="http://www.w3.org/2000/svg">
<path d="M936.688 42.8878C954.813 41.2518 1037.02 37.1308 1048.93 43.2153C1051.62 48.5904 1050.4 51.4321 1049.35 57.4778L1049.55 499.587C1049.58 582.731 1050.71 668.32 1049.78 751.224C982.339 747.921 909.433 753.116 841.296 750.21C819.081 749.262 795.373 752.032 772.654 751.361C764.687 751.912 754.51 750.817 746.233 750.788C664.565 750.508 581.869 752.586 500.292 751.169C506.181 746.451 512.761 747.194 521.273 746.217C511.52 729.849 517.619 704.536 511.003 685.813C507.785 676.709 510.444 678.395 501.465 674.964C486.11 680.518 411.084 704.811 397.257 705.265L397.016 704.117C403.621 700.985 406.579 696.818 407.467 689.578C404.379 683.513 406.334 685.577 398.367 682.414C384.54 687.259 312.836 714.164 303.376 708.19C338.114 692.396 377.294 682.838 414.968 663.654C552.269 593.745 640.624 507.864 718.299 377.506C762.206 296.676 790.411 211.66 802.933 120.234C805.589 100.686 804.523 67.9839 820.631 53.7834C841.916 35.0064 908.037 42.3431 936.688 42.8878Z" fill="#838383"/>
<path d="M801.286 365.582C816.851 383.634 821.213 449.315 832.98 460.996C807.702 486.524 782.851 510.608 754.355 532.605C750.42 535.652 735.048 547.435 732.683 550.298C762.71 571.795 758.833 718.863 799.231 747.306C799.366 747.454 799.502 747.601 799.638 747.748C783.665 747.644 790.856 744.759 772.654 751.361C764.687 751.912 754.51 750.817 746.233 750.788C664.565 750.509 581.869 752.586 500.292 751.169C506.181 746.451 512.761 747.194 521.273 746.217C511.52 729.849 517.619 704.536 511.003 685.814C507.785 676.709 510.444 678.395 501.465 674.965C486.11 680.518 411.084 704.811 397.257 705.265L397.016 704.118C403.621 700.985 406.579 696.818 407.467 689.578C404.379 683.513 406.334 685.577 398.367 682.414C384.54 687.259 312.836 714.164 303.376 708.19C338.114 692.396 377.294 682.838 414.968 663.654C552.269 593.745 640.624 507.864 718.299 377.506C732.78 396.233 734.815 415.442 741.658 438.363C748.617 436.016 746.407 433.926 752.029 432.017C759.724 428.016 793.919 376.57 801.286 365.582Z" fill="#807F7F"/>
<path d="M501.465 674.964C583.672 643.728 661.424 601.812 732.683 550.298C762.71 571.795 758.833 718.863 799.231 747.306C799.366 747.454 799.502 747.601 799.638 747.748C783.665 747.644 790.856 744.759 772.654 751.361C764.687 751.912 754.51 750.817 746.233 750.788C664.565 750.509 581.869 752.586 500.292 751.169C506.181 746.451 512.761 747.194 521.272 746.217C511.52 729.849 517.619 704.536 511.002 685.813C507.785 676.709 510.444 678.395 501.465 674.964Z" fill="#4D4C4C"/>
<path d="M718.299 377.506C732.78 396.233 734.815 415.442 741.658 438.363C748.617 436.016 746.407 433.926 752.029 432.017C741.038 448.423 719.268 471.036 705.273 485.661C626.571 567.872 506.596 645.379 398.367 682.414C384.54 687.259 312.836 714.164 303.376 708.19C338.114 692.396 377.294 682.838 414.968 663.654C552.269 593.745 640.624 507.864 718.299 377.506Z" fill="#ADACAC"/>
<path d="M936.688 42.8878C954.813 41.2518 1037.02 37.1308 1048.93 43.2153C1051.62 48.5904 1050.4 51.4321 1049.35 57.4778C1043.3 68.4044 1022.81 142.685 1015.33 163.136C978.036 265.174 910.325 384.143 832.98 460.996C821.213 449.315 816.851 383.633 801.285 365.581C793.919 376.57 759.724 428.016 752.029 432.017C746.407 433.926 748.617 436.016 741.658 438.363C734.815 415.442 732.78 396.233 718.299 377.506C762.206 296.676 790.411 211.66 802.933 120.234C805.589 100.686 804.523 67.9839 820.631 53.7834C841.916 35.0064 908.037 42.3431 936.688 42.8878Z" fill="#B8B7B7"/>
<path d="M718.299 377.506C762.206 296.676 790.411 211.66 802.933 120.235C805.589 100.686 804.523 67.9839 820.631 53.7834C841.916 35.0065 908.037 42.3432 936.688 42.8879L937.58 45.2275C932.423 50.0424 917.555 66.786 916.373 72.9791C895.282 182.809 861.068 270.233 801.285 365.582C793.919 376.57 759.724 428.016 752.029 432.017C746.407 433.926 748.617 436.016 741.658 438.363C734.815 415.442 732.78 396.233 718.299 377.506Z" fill="#D6D5D5"/>
<path d="M677.727 818.229C765.831 814.634 772.829 856.718 769.533 930.389C768.292 958.402 770.192 986.608 768.079 1015.45L730.395 1015.81L731.364 982.411C701.182 1030.57 647.215 1033.34 609.977 991.215C600.304 973.155 598.288 948.92 611.625 929.811C636.748 893.762 702.598 912.013 725.937 889.179C744.275 871.218 701.008 839.195 676.486 851.143C658.749 859.784 659.04 855.151 646.362 876.844C634.596 874.533 620.542 872.721 608.523 870.908C624.322 833.854 638.55 825.94 677.727 818.229ZM654.31 983.087C682.709 996.022 713.705 988.441 726.557 958.649C731.733 946.636 730.104 935.13 729.213 922.496L727.739 920.92C702.248 929.29 660.532 927.925 644.152 950.618C637.251 960.191 646.11 976.014 654.31 983.087Z" fill="black"/>
<path d="M1021.34 818.305C1027.25 817.772 1033.19 817.501 1039.12 817.495C1105.96 817.382 1125.24 873.388 1124.95 929.899L983.328 929.99C989.415 964.351 1003.66 990.275 1046.29 986.856C1063.35 985.485 1074.26 976.21 1084.52 962.799C1096.69 964.388 1110.53 964.673 1122.9 965.231C1102.6 1021.31 1036.97 1033.48 988.038 1007.17C939.402 981.006 932.482 903.409 959.484 859.947C974.682 835.479 994.009 824.851 1021.34 818.305ZM983.328 901.054L1042.47 901.294L1085.52 901.531C1081.51 863.316 1065.48 848.687 1026.36 851.133C998.08 859.464 988.562 872.304 983.328 901.054Z" fill="black"/>
<path d="M256.721 820.063L296.83 820.294C297.078 858.138 295.901 896.729 296.558 934.539C296.903 954.516 302.397 964.968 316.61 977.709C344.099 984.952 377.451 979.932 381.15 945.336C385.344 906.115 382.611 860.765 382.733 820.652L422.753 820.253L422.817 894.188C423.069 934.419 422.84 974.652 422.129 1014.88L383.778 1015.29L384.032 973.593C351.937 1035.39 274.989 1033.59 259.497 967.362C251.566 933.452 256.507 857.714 256.721 820.063Z" fill="black"/>
<path d="M397.256 705.265C411.084 704.811 486.11 680.518 501.465 674.964C510.444 678.395 507.785 676.709 511.002 685.813C517.618 704.536 511.52 729.849 521.272 746.217C512.761 747.194 506.181 746.451 500.292 751.169C369.497 749.96 236.421 751.39 105.489 751.954C90.0622 750.663 78.4023 753.3 61.7682 750.344C110.379 746.207 159.681 741.512 207.77 733.363C241.583 725.207 269.858 718.105 303.376 708.19C312.836 714.164 384.54 687.259 398.367 682.413C406.334 685.577 404.378 683.513 407.466 689.578C406.579 696.818 403.621 700.985 397.016 704.117L397.256 705.265Z" fill="#1E1E1E"/>
<path d="M303.376 708.19C312.836 714.164 384.54 687.259 398.367 682.414C406.334 685.577 404.379 683.513 407.466 689.578C406.579 696.818 403.621 700.985 397.016 704.118L397.256 705.265C371.981 714.255 228.836 742.228 210.864 736.137L207.77 733.364C241.583 725.207 269.858 718.105 303.376 708.19Z" fill="#414141"/>
<path d="M117.213 818.21C172.859 814.436 202.957 830.986 216.816 885.911C203.611 886.058 190.154 885.917 176.924 885.911C170.912 862.236 156.608 850.757 131.753 851.214C119.502 851.327 107.827 856.423 99.4175 865.331C70.9413 895.14 73.8606 970.595 119.882 983.735C141.901 990.021 156.492 984.535 171.128 967.701L177.775 952.812C190.586 952.494 203.952 952.616 216.817 952.56C208.406 985.324 192.464 1008.51 158.409 1016.92C61.5726 1040.91 10.3406 931.721 58.1376 856.19C72.7441 833.11 91.3553 823.918 117.213 818.21Z" fill="black"/>
<path d="M870.819 774.168L871.478 774.393C874.56 778.615 873.455 812.827 873.494 820.985L913.756 820.968L913.776 852.724L873.668 852.059C872.35 882.722 873.223 914.219 872.816 944.95C872.408 976.683 876.518 987.224 909.84 980.083C912.07 991.166 915.074 1002.66 917.788 1013.69L894.216 1019.56C849.108 1017.53 832.359 997.4 833.212 953.436C833.871 919.945 833.755 885.642 834.085 852.083L803.321 852.6L803.767 819.751C813.169 820.642 823.598 820.582 833.116 820.741C833.891 806.45 833.464 789.318 833.445 774.782L870.819 774.168Z" fill="black"/>
<path d="M556.533 818.279C567.137 817.762 571.13 816.465 579.097 822.534C583.149 829.95 580.958 844.847 581.675 855.76C552.133 853.653 517.368 857.799 514.815 892.438C512.02 930.331 513.794 976.896 513.939 1015.08C501.419 1015.31 485.949 1016.07 473.722 1014.82L473.702 820.038L513.732 821.522L514.065 859.636C524.442 834.203 528.705 825.511 556.533 818.279Z" fill="black"/>
<path d="M105.489 751.955C87.3057 754.106 73.6316 754.269 55.3324 752.267L55.7589 750.253L61.7682 750.344C78.4022 753.3 90.0622 750.664 105.489 751.955Z" fill="black" fill-opacity="0.529412"/>
<rect x="40" y="4" width="72.6719" height="30" rx="3" fill="white"/>
<rect x="40.5" y="4.5" width="71.6719" height="29" rx="2.5" stroke="black" stroke-opacity="0.2"/>
<path d="M49.2813 22.125C48.7188 22.125 48.2344 21.9922 47.8281 21.7266C47.4219 21.4609 47.1094 21.0951 46.8906 20.6289C46.6719 20.1628 46.5625 19.6302 46.5625 19.0312C46.5625 18.4219 46.6745 17.8841 46.8984 17.418C47.125 16.9492 47.4401 16.5833 47.8438 16.3203C48.25 16.0547 48.724 15.9219 49.2656 15.9219C49.6875 15.9219 50.0677 16 50.4063 16.1562C50.7448 16.3125 51.0221 16.5312 51.2383 16.8125C51.4544 17.0937 51.5885 17.4219 51.6406 17.7969H50.7188C50.6484 17.5234 50.4922 17.2812 50.25 17.0703C50.0104 16.8568 49.6875 16.75 49.2813 16.75C48.9219 16.75 48.6068 16.8437 48.3359 17.0312C48.0677 17.2161 47.8581 17.4779 47.707 17.8164C47.5586 18.1523 47.4844 18.5469 47.4844 19C47.4844 19.4635 47.5573 19.8672 47.7031 20.2109C47.8516 20.5547 48.0599 20.8216 48.3281 21.0117C48.599 21.2018 48.9167 21.2969 49.2813 21.2969C49.5208 21.2969 49.7383 21.2552 49.9336 21.1719C50.1289 21.0885 50.2943 20.9688 50.4297 20.8125C50.5651 20.6562 50.6615 20.4687 50.7188 20.25H51.6406C51.5885 20.6042 51.4596 20.9232 51.2539 21.207C51.0508 21.4883 50.7813 21.7122 50.4453 21.8789C50.112 22.043 49.724 22.125 49.2813 22.125ZM56.7695 19.5469V16H57.6914V22H56.7695V20.9844H56.707C56.5664 21.2891 56.3477 21.5482 56.0508 21.7617C55.7539 21.9727 55.3789 22.0781 54.9258 22.0781C54.5508 22.0781 54.2174 21.9961 53.9258 21.832C53.6341 21.6654 53.4049 21.4154 53.2383 21.082C53.0716 20.7461 52.9883 20.3229 52.9883 19.8125V16H53.9102V19.75C53.9102 20.1875 54.0326 20.5365 54.2773 20.7969C54.5247 21.0573 54.8398 21.1875 55.2227 21.1875C55.4518 21.1875 55.6849 21.1289 55.9219 21.0117C56.1615 20.8945 56.362 20.7148 56.5234 20.4727C56.6875 20.2305 56.7695 19.9219 56.7695 19.5469ZM59.3799 22V16H60.2705V16.9062H60.333C60.4424 16.6094 60.6403 16.3685 60.9268 16.1836C61.2132 15.9987 61.5361 15.9062 61.8955 15.9062C61.9632 15.9062 62.0479 15.9076 62.1494 15.9102C62.251 15.9128 62.3278 15.9167 62.3799 15.9219V16.8594C62.3486 16.8516 62.277 16.8398 62.165 16.8242C62.0557 16.806 61.9398 16.7969 61.8174 16.7969C61.5257 16.7969 61.2653 16.8581 61.0361 16.9805C60.8096 17.1003 60.6299 17.2669 60.4971 17.4805C60.3669 17.6914 60.3018 17.9323 60.3018 18.2031V22H59.3799ZM65.2383 22.1406C64.8581 22.1406 64.513 22.069 64.2031 21.9258C63.8932 21.7799 63.6471 21.5703 63.4648 21.2969C63.2826 21.0208 63.1914 20.6875 63.1914 20.2969C63.1914 19.9531 63.2591 19.6745 63.3945 19.4609C63.5299 19.2448 63.7109 19.0755 63.9375 18.9531C64.1641 18.8307 64.4141 18.7396 64.6875 18.6797C64.9635 18.6172 65.2409 18.5677 65.5195 18.5313C65.8841 18.4844 66.1797 18.4492 66.4063 18.4258C66.6354 18.3997 66.8021 18.3568 66.9063 18.2969C67.013 18.237 67.0664 18.1328 67.0664 17.9844V17.9531C67.0664 17.5677 66.9609 17.2682 66.75 17.0547C66.5417 16.8411 66.2253 16.7344 65.8008 16.7344C65.3607 16.7344 65.0156 16.8307 64.7656 17.0234C64.5156 17.2161 64.3398 17.4219 64.2383 17.6406L63.3633 17.3281C63.5195 16.9635 63.7279 16.6797 63.9883 16.4766C64.2513 16.2708 64.5378 16.1276 64.8477 16.0469C65.1602 15.9635 65.4674 15.9219 65.7695 15.9219C65.9622 15.9219 66.1836 15.9453 66.4336 15.9922C66.6862 16.0365 66.9297 16.1289 67.1641 16.2695C67.401 16.4102 67.5977 16.6224 67.7539 16.9062C67.9102 17.1901 67.9883 17.5703 67.9883 18.0469V22H67.0664V21.1875H67.0195C66.957 21.3177 66.8529 21.457 66.707 21.6055C66.5612 21.7539 66.3672 21.8802 66.125 21.9844C65.8828 22.0885 65.5872 22.1406 65.2383 22.1406ZM65.3789 21.3125C65.7435 21.3125 66.0508 21.2409 66.3008 21.0977C66.5534 20.9544 66.7435 20.7695 66.8711 20.543C67.0013 20.3164 67.0664 20.0781 67.0664 19.8281V18.9844C67.0273 19.0312 66.9414 19.0742 66.8086 19.1133C66.6784 19.1497 66.5273 19.1823 66.3555 19.2109C66.1862 19.237 66.0208 19.2604 65.8594 19.2812C65.7005 19.2995 65.5716 19.3151 65.4727 19.3281C65.2331 19.3594 65.0091 19.4102 64.8008 19.4805C64.5951 19.5482 64.4284 19.651 64.3008 19.7891C64.1758 19.9245 64.1133 20.1094 64.1133 20.3437C64.1133 20.6641 64.2318 20.9062 64.4688 21.0703C64.7083 21.2318 65.0117 21.3125 65.3789 21.3125ZM72.2803 16V16.7812H69.1709V16H72.2803ZM70.0771 14.5625H70.999V20.2812C70.999 20.5417 71.0368 20.737 71.1123 20.8672C71.1904 20.9948 71.2894 21.0807 71.4092 21.125C71.5316 21.1667 71.6605 21.1875 71.7959 21.1875C71.8975 21.1875 71.9808 21.1823 72.0459 21.1719C72.111 21.1589 72.1631 21.1484 72.2021 21.1406L72.3896 21.9687C72.3271 21.9922 72.2399 22.0156 72.1279 22.0391C72.016 22.0651 71.874 22.0781 71.7021 22.0781C71.4417 22.0781 71.1865 22.0221 70.9365 21.9102C70.6891 21.7982 70.4834 21.6276 70.3193 21.3984C70.1579 21.1693 70.0771 20.8802 70.0771 20.5312V14.5625ZM76.1182 22.125C75.54 22.125 75.0413 21.9974 74.6221 21.7422C74.2054 21.4844 73.8838 21.125 73.6572 20.6641C73.4333 20.2005 73.3213 19.6615 73.3213 19.0469C73.3213 18.4323 73.4333 17.8906 73.6572 17.4219C73.8838 16.9505 74.1989 16.5833 74.6025 16.3203C75.0088 16.0547 75.4827 15.9219 76.0244 15.9219C76.3369 15.9219 76.6455 15.974 76.9502 16.0781C77.2549 16.1823 77.5322 16.3516 77.7822 16.5859C78.0322 16.8177 78.2314 17.125 78.3799 17.5078C78.5283 17.8906 78.6025 18.362 78.6025 18.9219V19.3125H73.9775V18.5156H77.665C77.665 18.1771 77.5973 17.875 77.4619 17.6094C77.3291 17.3437 77.139 17.1341 76.8916 16.9805C76.6468 16.8268 76.3577 16.75 76.0244 16.75C75.6572 16.75 75.3395 16.8411 75.0713 17.0234C74.8057 17.2031 74.6012 17.4375 74.458 17.7266C74.3148 18.0156 74.2432 18.3255 74.2432 18.6562V19.1875C74.2432 19.6406 74.3213 20.0247 74.4775 20.3398C74.6364 20.6523 74.8564 20.8906 75.1377 21.0547C75.4189 21.2161 75.7458 21.2969 76.1182 21.2969C76.3604 21.2969 76.5791 21.263 76.7744 21.1953C76.9723 21.125 77.1429 21.0208 77.2861 20.8828C77.4294 20.7422 77.54 20.5677 77.6182 20.3594L78.5088 20.6094C78.415 20.9115 78.2575 21.1771 78.0361 21.4062C77.8148 21.6328 77.5413 21.8099 77.2158 21.9375C76.8903 22.0625 76.5244 22.125 76.1182 22.125ZM83.4424 18.1406V19H79.9424V18.1406H83.4424ZM85.9863 14V22H85.0645V14H85.9863ZM90.1123 22.125C89.5706 22.125 89.0954 21.9961 88.6865 21.7383C88.2803 21.4805 87.9626 21.1198 87.7334 20.6562C87.5068 20.1927 87.3936 19.651 87.3936 19.0312C87.3936 18.4062 87.5068 17.8607 87.7334 17.3945C87.9626 16.9284 88.2803 16.5664 88.6865 16.3086C89.0954 16.0508 89.5706 15.9219 90.1123 15.9219C90.654 15.9219 91.1279 16.0508 91.5342 16.3086C91.943 16.5664 92.2607 16.9284 92.4873 17.3945C92.7165 17.8607 92.8311 18.4062 92.8311 19.0312C92.8311 19.651 92.7165 20.1927 92.4873 20.6562C92.2607 21.1198 91.943 21.4805 91.5342 21.7383C91.1279 21.9961 90.654 22.125 90.1123 22.125ZM90.1123 21.2969C90.5238 21.2969 90.8623 21.1914 91.1279 20.9805C91.3936 20.7695 91.5902 20.4922 91.7178 20.1484C91.8454 19.8047 91.9092 19.4323 91.9092 19.0312C91.9092 18.6302 91.8454 18.2565 91.7178 17.9102C91.5902 17.5638 91.3936 17.2839 91.1279 17.0703C90.8623 16.8568 90.5238 16.75 90.1123 16.75C89.7008 16.75 89.3623 16.8568 89.0967 17.0703C88.8311 17.2839 88.6344 17.5638 88.5068 17.9102C88.3792 18.2565 88.3154 18.6302 88.3154 19.0312C88.3154 19.4323 88.3792 19.8047 88.5068 20.1484C88.6344 20.4922 88.8311 20.7695 89.0967 20.9805C89.3623 21.1914 89.7008 21.2969 90.1123 21.2969ZM96.6602 24.375C96.2148 24.375 95.832 24.3177 95.5117 24.2031C95.1914 24.0911 94.9245 23.9427 94.7109 23.7578C94.5 23.5755 94.332 23.3802 94.207 23.1719L94.9414 22.6563C95.0247 22.7656 95.1302 22.8906 95.2578 23.0312C95.3854 23.1745 95.5599 23.2982 95.7813 23.4023C96.0052 23.5091 96.2982 23.5625 96.6602 23.5625C97.1445 23.5625 97.5443 23.4453 97.8594 23.2109C98.1745 22.9766 98.332 22.6094 98.332 22.1094V20.8906H98.2539C98.1862 21 98.0898 21.1354 97.9648 21.2969C97.8424 21.4557 97.6654 21.5977 97.4336 21.7227C97.2044 21.8451 96.8945 21.9062 96.5039 21.9062C96.0195 21.9062 95.5846 21.7917 95.1992 21.5625C94.8164 21.3333 94.513 21 94.2891 20.5625C94.0677 20.125 93.957 19.5937 93.957 18.9687C93.957 18.3542 94.0651 17.819 94.2813 17.3633C94.4974 16.9049 94.7982 16.5508 95.1836 16.3008C95.569 16.0482 96.0143 15.9219 96.5195 15.9219C96.9102 15.9219 97.2201 15.987 97.4492 16.1172C97.681 16.2448 97.8581 16.3906 97.9805 16.5547C98.1055 16.7161 98.2018 16.849 98.2695 16.9531H98.3633V16H99.2539V22.1719C99.2539 22.6875 99.1367 23.1068 98.9023 23.4297C98.6706 23.7552 98.3581 23.9935 97.9648 24.1445C97.5742 24.2982 97.1393 24.375 96.6602 24.375ZM96.6289 21.0781C96.9987 21.0781 97.3112 20.9935 97.5664 20.8242C97.8216 20.6549 98.0156 20.4115 98.1484 20.0938C98.2813 19.776 98.3477 19.3958 98.3477 18.9531C98.3477 18.5208 98.2826 18.1393 98.1523 17.8086C98.0221 17.4779 97.8294 17.2187 97.5742 17.0312C97.319 16.8437 97.0039 16.75 96.6289 16.75C96.2383 16.75 95.9128 16.849 95.6523 17.0469C95.3945 17.2448 95.2005 17.5104 95.0703 17.8438C94.9427 18.1771 94.8789 18.5469 94.8789 18.9531C94.8789 19.3698 94.944 19.7383 95.0742 20.0586C95.207 20.3763 95.4023 20.6263 95.6602 20.8086C95.9206 20.9883 96.2435 21.0781 96.6289 21.0781ZM103.379 22.125C102.837 22.125 102.362 21.9961 101.953 21.7383C101.547 21.4805 101.229 21.1198 101 20.6562C100.773 20.1927 100.66 19.651 100.66 19.0312C100.66 18.4062 100.773 17.8607 101 17.3945C101.229 16.9284 101.547 16.5664 101.953 16.3086C102.362 16.0508 102.837 15.9219 103.379 15.9219C103.921 15.9219 104.395 16.0508 104.801 16.3086C105.21 16.5664 105.527 16.9284 105.754 17.3945C105.983 17.8607 106.098 18.4062 106.098 19.0312C106.098 19.651 105.983 20.1927 105.754 20.6562C105.527 21.1198 105.21 21.4805 104.801 21.7383C104.395 21.9961 103.921 22.125 103.379 22.125ZM103.379 21.2969C103.79 21.2969 104.129 21.1914 104.395 20.9805C104.66 20.7695 104.857 20.4922 104.984 20.1484C105.112 19.8047 105.176 19.4323 105.176 19.0312C105.176 18.6302 105.112 18.2565 104.984 17.9102C104.857 17.5638 104.66 17.2839 104.395 17.0703C104.129 16.8568 103.79 16.75 103.379 16.75C102.967 16.75 102.629 16.8568 102.363 17.0703C102.098 17.2839 101.901 17.5638 101.773 17.9102C101.646 18.2565 101.582 18.6302 101.582 19.0312C101.582 19.4323 101.646 19.8047 101.773 20.1484C101.901 20.4922 102.098 20.7695 102.363 20.9805C102.629 21.1914 102.967 21.2969 103.379 21.2969Z" fill="black"/>
</svg>
